<svg id="Layer_1" data-name="Layer 1" xmlns="http://www.w3.org/2000/svg" xmlns:xlink="http://www.w3.org/1999/xlink" viewBox="0 0 250 250"><defs><style>.cls-1{fill:none;}.cls-2{fill:#ff7a59;}.cls-3{clip-path:url(#clip-path);}.cls-4{fill:#fff;}</style><clipPath id="clip-path"><rect class="cls-1" x="40.46" y="36.41" width="169.07" height="177.17"/></clipPath></defs><rect class="cls-2" width="250" height="250"/><g class="cls-3"><path class="cls-4" d="M170.39,94.72V73.63A16.23,16.23,0,0,0,179.75,59v-.49a16.27,16.27,0,0,0-16.22-16.22H163a16.27,16.27,0,0,0-16.22,16.22V59a16.23,16.23,0,0,0,9.37,14.63v21.1a45.89,45.89,0,0,0-21.87,9.62L76.4,59.3a18.47,18.47,0,1,0-8.65,11.25l57,44.32a46.14,46.14,0,0,0,.71,52L108.1,184.22a15.33,15.33,0,1,0,10,10l17.14-17.14a46.21,46.21,0,1,0,35.11-82.4m-7.1,69.37A23.72,23.72,0,1,1,187,140.38a23.72,23.72,0,0,1-23.71,23.71"/></g><rect class="cls-1" x="31.14" y="26.64" width="187.72" height="196.71"/></svg>